<?xml version="1.0" encoding="UTF-8"?>
<svg width="16px" height="17px" viewBox="0 0 16 17" version="1.1" xmlns="http://www.w3.org/2000/svg" xmlns:xlink="http://www.w3.org/1999/xlink">
    <!-- Generator: Sketch 60 (88103) - https://sketch.com -->
    <title>Icon overview default</title>
    <desc>Created with Sketch.</desc>
    <g id="User-Account" stroke="none" stroke-width="1" fill="none" fill-rule="evenodd" opacity="0.25">
        <g id="--Artboard" transform="translate(-27.000000, -20.000000)" fill="#1A3065" fill-rule="nonzero">
            <g id="Icon/Integration" transform="translate(23.000000, 16.500000)">
                <path d="M19.4,7.1 L12.4,4.1 C12.1,4 11.9,4 11.6,4.1 L4.6,7.1 C4.2,7.2 4,7.6 4,8 L4,16 C4,16.4 4.2,16.8 4.6,16.9 L11.6,19.9 C11.7,20 11.9,20 12,20 C12.1,20 12.3,20 12.4,19.9 L19.4,16.9 C19.8,16.7 20,16.4 20,16 L20,8 C20,7.6 19.8,7.2 19.4,7.1 Z M12,6.1 L16.5,8 L12,9.9 L7.5,8 L12,6.1 Z M6,9.5 L11,11.6 L11,17.4 L6,15.3 L6,9.5 Z M13,17.5 L13,11.7 L18,9.6 L18,15.4 L13,17.5 Z" id="Fill"></path>
            </g>
        </g>
    </g>
</svg>