<?xml version="1.0" encoding="UTF-8"?>
<svg width="16px" height="17px" viewBox="0 0 16 17" version="1.1" xmlns="http://www.w3.org/2000/svg" xmlns:xlink="http://www.w3.org/1999/xlink">
    <!-- Generator: Sketch 60 (88103) - https://sketch.com -->
    <title>Icon profile default</title>
    <desc>Created with Sketch.</desc>
    <g id="User-Account" stroke="none" stroke-width="1" fill="none" fill-rule="evenodd" opacity="0.25">
        <g id="--Artboard" transform="translate(-80.000000, -20.000000)" fill="#1A3065" fill-rule="nonzero">
            <g id="Icon/User" transform="translate(76.000000, 16.500000)">
                <path d="M12,4 C7.6,4 4,7.6 4,12 C4,16.4 7.6,20 12,20 C16.4,20 20,16.4 20,12 C20,7.6 16.4,4 12,4 Z M16.1,16.3 C15.7,15.6 14.9,15.3 14,15 C13.3,14.8 13.1,14.4 13,13.8 C14.1,13.4 15,12.3 15,11 C15,9.3 13.7,8 12,8 C10.3,8 9,9.3 9,11 C9,12.3 9.8,13.4 11,13.8 C10.9,14.4 10.7,14.8 10,15 C9.1,15.3 8.3,15.6 7.9,16.3 C6.7,15.2 6,13.7 6,12 C6,8.7 8.7,6 12,6 C15.3,6 18,8.7 18,12 C18,13.7 17.3,15.2 16.1,16.3 Z" id="Fill"></path>
            </g>
        </g>
    </g>
</svg>