<?xml version="1.0" encoding="UTF-8"?>
<svg width="16px" height="16px" viewBox="0 0 16 16" version="1.1" xmlns="http://www.w3.org/2000/svg" xmlns:xlink="http://www.w3.org/1999/xlink">
    <!-- Generator: Sketch 60 (88103) - https://sketch.com -->
    <title>icon page active</title>
    <desc>Created with Sketch.</desc>
    <g id="User-Account" stroke="none" stroke-width="1" fill="none" fill-rule="evenodd">
        <g id="--Artboard" transform="translate(-186.000000, -48.000000)" fill="#00A0FF" fill-rule="nonzero">
            <g id="Icon/Device/Desktop" transform="translate(182.000000, 44.000000)">
                <path d="M19,4 L5,4 C4.4,4 4,4.4 4,5 L4,16 C4,16.6 4.4,17 5,17 L10,17 L10,18 L7,18 L7,20 L17,20 L17,18 L14,18 L14,17 L19,17 C19.6,17 20,16.6 20,16 L20,5 C20,4.4 19.6,4 19,4 Z M18,6 L18,13 L6,13 L6,6 L18,6 Z" id="Fill"></path>
            </g>
        </g>
    </g>
</svg>