<?xml version="1.0" encoding="UTF-8"?>
<svg width="668px" height="168px" viewBox="0 0 668 168" version="1.1" xmlns="http://www.w3.org/2000/svg" xmlns:xlink="http://www.w3.org/1999/xlink">
    <!-- Generator: Sketch 60 (88103) - https://sketch.com -->
    <title>Logo 2 medium</title>
    <desc>Created with Sketch.</desc>
    <g id="Logo-2-medium" stroke="none" stroke-width="1" fill="none" fill-rule="evenodd">
        <g id="Logo" transform="translate(0.000000, 3.000000)" fill-rule="nonzero">
            <path d="M131.123055,163.934426 C175.233011,163.934426 210.930244,127.782452 210.930244,83.445124 C210.930244,39.1077965 175.233011,3.18319274 131.123055,3.18319274 C86.3309856,3.18319274 51.0884945,39.1077965 51.0884945,83.445124 C51.0884945,127.782452 86.3309856,163.934426 131.123055,163.934426 Z M130.895684,130.283532 C104.520658,130.283532 87.0130983,109.592779 87.0130983,83.445124 C87.0130983,57.2974694 104.520658,36.8340874 130.895684,36.8340874 C157.043339,36.8340874 175.005641,57.2974694 175.005641,83.445124 C175.005641,109.592779 157.043339,130.283532 130.895684,130.283532 Z M269.067237,161.888088 L269.067237,81.1714149 L321.135176,81.1714149 L321.135176,161.888088 L354.78607,161.888088 L354.78607,81.1714149 L377.29579,81.1714149 L377.29579,55.9332439 L354.78607,55.9332439 L354.78607,51.8405675 C355.013441,39.5625384 360.697714,30.9224438 377.29579,30.9224438 L383.662176,30.9224438 L383.662176,0 L370.247292,0 C339.324848,0 321.135176,17.734931 321.135176,51.1584548 L321.135176,55.9332439 L269.067237,55.9332439 L269.067237,51.8405675 C269.294608,39.5625384 274.978881,30.9224438 291.576957,30.9224438 L297.943343,30.9224438 L297.943343,0 L284.528459,0 C253.833386,0 235.416342,17.734931 235.416342,51.1584548 L235.416342,55.9332439 L215.635073,55.9332439 L215.635073,81.1714149 L235.416342,81.1714149 L235.416342,161.888088 L269.067237,161.888088 Z M425.201092,163.934426 C446.573958,163.934426 470.902645,153.475364 470.902645,130.056161 C470.902645,122.780291 468.628936,105.954844 442.026539,98.678975 L423.609496,93.676815 C418.152594,92.3125895 414.514659,90.0388804 414.514659,85.946204 C414.514659,81.3987858 419.289448,79.1250767 424.973721,79.1250767 C431.567478,79.1250767 436.342267,82.3082695 436.342267,89.1293968 L468.174194,89.1293968 C468.628936,62.5270003 444.300249,53.204793 424.291608,53.204793 C398.598696,53.204793 380.863765,69.1207567 380.863765,84.8093495 L380.865989,85.4995828 C380.929196,94.5688114 382.561851,111.624726 412.923063,119.82447 L426.792688,123.462404 C434.75067,125.281372 437.25175,126.872968 437.25175,130.283532 C437.25175,135.285692 431.340107,138.241513 424.291608,138.241513 C414.74203,138.241513 410.876725,132.102499 410.876725,126.872968 L379.044797,126.872968 C379.044797,150.974284 401.554517,163.934426 425.201092,163.934426 Z M534.72391,163.934426 C552.686212,163.934426 570.875885,157.568041 581.334947,146.199495 L564.054758,124.371888 C557.233631,130.738273 547.229311,134.603579 537.224991,134.603579 C524.49222,134.603579 515.624754,128.691935 512.441561,118.687615 L589.975042,118.687615 C590.429783,113.458084 590.657154,109.592779 590.657154,106.636957 C590.657154,74.3502876 564.964242,53.204793 534.72391,53.204793 C504.256209,53.204793 477.426441,74.5776585 477.426441,109.138037 C477.426441,141.424706 501.300387,163.934426 534.72391,163.934426 Z M557.00626,98.9063459 L512.21419,98.9063459 C515.624754,86.173575 525.174332,81.6261567 535.406023,81.6261567 C547.456681,81.6261567 556.778889,88.4472841 557.00626,98.9063459 Z M645.383583,161.888088 L645.383583,81.1714149 L667.665933,81.1714149 L667.665933,55.9332439 L645.383583,55.9332439 L645.383583,17.734931 L611.732689,17.734931 L611.732689,55.9332439 L592.406161,55.9332439 L592.406161,81.1714149 L611.732689,81.1714149 L611.732689,161.888088 L645.383583,161.888088 Z" id="fill" fill="#FFFFFF"></path>
            <path d="M20.9181237,39.7899093 C32.2866692,39.7899093 41.3815057,30.9224438 41.3815057,20.236011 C41.3815057,9.09483641 32.2866692,0.68211273 20.9181237,0.68211273 C9.54957823,0.68211273 0,9.09483641 0,20.236011 C0,30.9224438 9.54957823,39.7899093 20.9181237,39.7899093 Z" id="Path" fill="#00D592"></path>
            <polygon id="Path" fill="#00D592" points="37.7435711 161.888088 37.7435711 55.9332439 4.09267638 55.9332439 4.09267638 161.888088"></polygon>
        </g>
    </g>
</svg>