<?xml version="1.0" encoding="UTF-8"?>
<svg width="16px" height="14px" viewBox="0 0 16 14" version="1.1" xmlns="http://www.w3.org/2000/svg" xmlns:xlink="http://www.w3.org/1999/xlink">
    <!-- Generator: Sketch 60 (88103) - https://sketch.com -->
    <title>Icon/App/Twitter</title>
    <desc>Created with Sketch.</desc>
    <g id="---Alternative-homepage-variations" stroke="none" stroke-width="1" fill="none" fill-rule="evenodd">
        <g id="Homepage-alt-banner-2-1-Copy" transform="translate(-1334.000000, -4593.000000)" fill="#1A3065" fill-rule="nonzero">
            <g id="Footer/Light" transform="translate(0.000000, 4552.000000)">
                <g id="Social-links">
                    <g transform="translate(1290.000000, 36.000000)">
                        <g id="Group-2">
                            <g id="Icon/App/Twitter" transform="translate(40.000000, 0.000000)">
                                <path d="M20,7 C19.4,7.3 18.8,7.4 18.1,7.5 C18.8,7.1 19.3,6.5 19.5,5.7 C18.9,6.1 18.2,6.3 17.4,6.5 C16.8,5.9 15.9,5.5 15,5.5 C13.3,5.5 11.8,7 11.8,8.8 C11.8,9.1 11.8,9.3 11.9,9.5 C9.2,9.4 6.7,8.1 5.1,6.1 C4.8,6.6 4.7,7.1 4.7,7.8 C4.7,8.9 5.3,9.9 6.2,10.5 C5.7,10.5 5.2,10.3 4.7,10.1 C4.7,10.1 4.7,10.1 4.7,10.1 C4.7,11.7 5.8,13 7.3,13.3 C7,13.4 6.7,13.4 6.4,13.4 C6.2,13.4 6,13.4 5.8,13.3 C6.2,14.6 7.4,15.6 8.9,15.6 C7.8,16.5 6.4,17 4.8,17 C4.5,17 4.3,17 4,17 C5.5,17.9 7.2,18.5 9,18.5 C15,18.5 18.3,13.5 18.3,9.2 C18.3,9.1 18.3,8.9 18.3,8.8 C19,8.3 19.6,7.7 20,7 Z" id="Fill"></path>
                            </g>
                        </g>
                    </g>
                </g>
            </g>
        </g>
    </g>
</svg>